# AST/ASF file generated using VICON BodyLanguage
# -----------------------------------------------
:version 1.10
:name VICON
:units
  mass 1.0
  length 0.45
  angle deg
:documentation
   .ast/.asf automatically generated from VICON data using
   VICON BodyBuilder and BodyLanguage model FoxedUp or BRILLIANT.MOD
:root
   order TX TY TZ RX RY RZ
   axis XYZ
   position 0 0 0  
   orientation 0 0 0 
:bonedata
  begin
     id 1 
     name lhipjoint
     direction 0.660183 -0.676772 0.325788 
     length 2.75133 
     axis 0 0 0  XYZ
  end
  begin
     id 2 
     name lfemur
     direction 0.34202 -0.939693 0  
     length 7.70317  
     axis 0 0 20  XYZ
    dof rx ry rz
    limits (-160.0 20.0)
           (-70.0 70.0)
           (-60.0 70.0)
  end
  begin
     id 3 
     name ltibia
     direction 0.342105 -0.939662 0   
     length 7.18701   
     axis 0 0 20   XYZ
    dof rx
    limits (-10.0 170.0)
  end
  begin
     id 4 
     name lfoot
     direction 0.14163 -0.389126 0.910232   
     length 2.41719   
     axis -90 7.62852e-016 20   XYZ
    dof rx rz
    limits (-45.0 90.0)
           (-70.0 20.0)
  end
  begin
     id 5 
     name ltoes
     direction 1.53533e-011 -4.21926e-011 1   
     length 1.18611   
     axis -90 7.62852e-016 20   XYZ
    dof rx
    limits (-90.0 20.0)
  end
  begin
     id 6 
     name rhipjoint
     direction -0.6658 -0.67229 0.323631   
     length 2.76968  
     axis 0 0 0  XYZ 
  end
  begin
     id 7 
     name rfemur
     direction -0.34202 -0.939693 0   
     length 7.92547   
     axis 0 0 -20   XYZ
    dof rx ry rz
    limits (-160.0 20.0)
           (-70.0 70.0)
           (-70.0 60.0)
  end
  begin
     id 8 
     name rtibia
     direction -0.342022 -0.939692 0   
     length 7.22641   
     axis 0 0 -20   XYZ
    dof rx
    limits (-10.0 170.0)
 end
 begin
     id 9 
     name rfoot
     direction -0.105675 -0.29034 0.951071   
     length 2.48149  
     axis -90 -7.62852e-016 -20   XYZ
    dof rx rz
    limits (-45.0 90.0)
           (-20.0 70.0)
  end
  begin
     id 10 
     name rtoes
     direction -1.5349e-011 -4.21859e-011 1   
     length 1.23343   
     axis -90 -7.62852e-016 -20   XYZ
    dof rx
    limits (-90.0 20.0)
  end
  begin
     id 11 
     name lowerback
     direction 0.0104173 0.993624 -0.112266   
     length 2.00527   
     axis 0 0 0   XYZ
    dof rx ry rz
    limits (-20.0 45.0)
           (-30.0 30.0)
           (-30.0 30.0)
  end
  begin
     id 12 
     name upperback
     direction 0.00733149 0.999856 -0.0152913   
     length 2.01385   
     axis 0 0 0   XYZ
    dof rx ry rz
    limits (-20.0 45.0)
           (-30.0 30.0)
           (-30.0 30.0)
  end
  begin
     id 13 
     name thorax
     direction 0.0026304 0.999318 0.036841   
     length 2.03734   
     axis 0 0 0   XYZ
    dof rx ry rz
    limits (-20.0 45.0)
           (-30.0 30.0)
           (-30.0 30.0)
  end
  begin
     id 14 
     name lowerneck
     direction 0.0293154 0.998757 0.0403082   
     length 1.65303   
     axis 0 0 0   XYZ
    dof rx ry rz
    limits (-20.0 45.0)
           (-30.0 30.0)
           (-30.0 30.0)
  end
  begin
     id 15 
     name upperneck
     direction -0.0376619 0.998184 -0.0470083   
     length 1.60926   
     axis 0 0 0   XYZ
    dof rx ry rz
    limits (-20.0 45.0)
           (-30.0 30.0)
           (-30.0 30.0)
  end
  begin
     id 16
     name head
     direction -0.0170133 0.999635 -0.0209778  
     length 1.73625  
     axis 0 0 0   XYZ
    dof rx ry rz
    limits (-20.0 45.0)
           (-30.0 30.0)
           (-30.0 30.0)
  end
  begin
     id 17 
     name lclavicle
     direction 0.919857 0.39181 -0.0186333  
     length 3.75313  
     axis 0 0 0   XYZ
    dof ry rz
    limits (-20.0 10.0)
           (0.0 20.0)
  end
  begin
     id 18 
     name lhumerus
     direction 1 -4.48988e-011 1.44029e-027   
     length 5.49313   
     axis 180 -30 -90   XYZ
    dof rx ry rz
    limits (-60.0 90.0)
           (-90.0 90.0)
           (-90.0 90.0)
  end
  begin
     id 19
     name lradius
     direction 1 -4.48924e-011 7.46281e-027   
     length 3.29037   
     axis 180 -30 -90   XYZ
    dof rx
    limits (-10.0 170.0)
  end
  begin
     id 20
     name lwrist
     direction 1 -4.48955e-011 2.19879e-026   
     length 1.64519   
     axis -1.34358e-014 90 90   XYZ
    dof ry
    limits (-180.0 0.0)
 end
  begin
     id 21 
     name lhand
     direction 1 -4.48978e-011 4.39747e-026   
     length 0.729656   
     axis -2.80598e-014 90 90   XYZ
    dof rx rz
    limits (-90.0 90.0)
           (-45.0 45.0)
  end
  begin
     id 22 
     name lfingers
     direction 1 -4.49071e-011 8.79411e-026   
     length 0.588268   
     axis -5.61193e-014 90 90   XYZ
    dof rx
    limits (0.0 90.0)
  end
  begin
     id 23
     name lthumb
     direction 0.707107 -6.34817e-011 0.707107   
     length 0.844638   
     axis -90 45 -9.86923e-015   XYZ
    dof rx rz
    limits (-45.0 45.0)
           (-45.0 45.0)
  end
  begin
     id 24 
     name rclavicle
     direction -0.919898 0.388279 0.0550233   
     length 3.7171  
     axis 0 0 0   XYZ 
    dof ry rz
    limits (-10.0 20.0)
           (-20.0 0.0)
  end
  begin
     id 25 
     name rhumerus
     direction -1 -4.48968e-011 9.98372e-028  
     length 5.23684   
     axis 180 30 90   XYZ
    dof rx ry rz
    limits (-90.0 60.0)
           (-90.0 90.0)
           (-90.0 90.0)
  end
  begin
     id 26 
     name rradius
     direction -1 -4.48956e-011 1.01023e-026   
     length 3.38251   
     axis 180 30 90   XYZ
    dof rx
    limits (-10.0 170.0)
  end
  begin
     id 27 
     name rwrist
     direction -1 -4.4892e-011 2.19886e-026   
     length 1.69126   
     axis -1.34358e-014 -90 -90   XYZ
    dof ry
    limits (-180.0 0.0)
  end
  begin
     id 28
     name rhand
     direction -1 -4.49024e-011 4.39727e-026   
     length 0.691454   
     axis -2.80598e-014 -90 -90   XYZ
    dof rx rz
    limits (-90.0 90.0)
           (-45.0 45.0)
  end
  begin
     id 29
     name rfingers
     direction -1 -4.49097e-011 8.79388e-026   
     length 0.557468   
     axis -5.61193e-014 -90 -90   XYZ
    dof rx
    limits (0.0 90.0)
  end
  begin
     id 30
     name rthumb
     direction -0.707107 -6.34938e-011 0.707107   
     length 0.800416   
     axis -90 -45 9.86923e-015   XYZ
    dof rx rz
    limits (-45.0 45.0)
           (-45.0 45.0)
  end
:hierarchy
  begin
    root lhipjoint rhipjoint lowerback
    lhipjoint lfemur
    lfemur ltibia
    ltibia lfoot
    lfoot ltoes
    rhipjoint rfemur
    rfemur rtibia
    rtibia rfoot
    rfoot rtoes
    lowerback upperback
    upperback thorax
    thorax lowerneck lclavicle rclavicle
    lowerneck upperneck
    upperneck head
    lclavicle lhumerus
    lhumerus lradius
    lradius lwrist
    lwrist lhand lthumb
    lhand lfingers
    rclavicle rhumerus
    rhumerus rradius
    rradius rwrist
    rwrist rhand rthumb
    rhand rfingers
  end

#!OML:ASF H:\BabyWalks\Project 1\Capture day 1\Session 1\baby.ASF
:FULLY-SPECIFIED
:DEGREES
386
root -7.5664 18.35 -2.15819 197.478 -84.2158 -199.37
lowerback 15.5567 5.3659 4.01182
upperback 0.747166 7.66115 -1.13275
thorax -7.1874 3.5487 -5.0577
lowerneck 5.55125 17.7115 12.3015
upperneck -15.1727 22.8255 -20.7715
head -1.4113 11.8901 -8.09238
rclavicle 1.15295e-014 1.98785e-015
rhumerus -27.8699 6.30921 -69.6398
rradius 72.5538
rwrist -20.052
rhand -9.78872 -27.4837
rfingers 7.12502
rthumb 16.1871 -56.8278
lclavicle 1.15295e-014 1.98785e-015
lhumerus -48.4133 -10.3837 75.0154
lradius 74.2683
lwrist -0.734291
lhand 8.4894 14.7402
lfingers 7.12502
lthumb 33.6922 41.5918
rfemur 5.45441 2.0254 24.2961
rtibia -9.54166e-015
rfoot -2.54245 -9.04007
rtoes 16.0631
lfemur -28.5894 -10.5866 11.1473
ltibia 125.868
lfoot 5.00398 -34.7652
ltoes -8.15245
387
root -7.58028 18.3721 -2.14985 198.489 -83.3 -200.23
lowerback 15.4259 5.60776 3.72385
upperback 0.632122 7.9063 -1.45819
thorax -7.20453 3.67206 -5.28393
lowerneck 5.31154 18.1257 12.6085
upperneck -14.0108 23.5372 -20.8589
head -0.87738 12.2178 -7.96508
rclavicle -1.43622e-014 -6.36111e-015
rhumerus -27.498 7.90285 -70.5458
rradius 72.039
rwrist -18.021
rhand -8.88254 -26.4032
rfingers 7.12502
rthumb 17.0595 -55.6742
lclavicle -1.43622e-014 -6.36111e-015
lhumerus -48.2998 -10.9182 74.7474
lradius 74.1369
lwrist -0.465263
lhand 9.02392 15.1634
lfingers 7.12502
lthumb 34.2 41.9026
rfemur 5.26329 2.92435 23.9052
rtibia 1.59028e-014
rfoot -2.40628 -9.15635
rtoes 15.8228
lfemur -27.9373 -10.4901 11.5966
ltibia 126.329
lfoot 8.83445 -36.3589
ltoes -7.23677
388
root -7.59399 18.3936 -2.14244 199.291 -82.404 -200.901
lowerback 15.3226 5.85068 3.44756
upperback 0.51717 8.15409 -1.79354
thorax -7.23281 3.79519 -5.53068
lowerneck 5.07771 18.5421 12.9367
upperneck -12.8259 24.259 -20.9245
head -0.335896 12.5461 -7.8272
rclavicle -3.94339e-014 -9.93923e-016
rhumerus -27.1945 9.45152 -71.4491
rradius 71.5503
rwrist -15.9001
rhand -8.01598 -25.261
rfingers 7.12502
rthumb 17.8935 -54.4579
lclavicle -3.94339e-014 -9.93923e-016
lhumerus -48.1681 -11.4765 74.4557
lradius 74.023
lwrist -0.160077
lhand 9.60532 15.602
lfingers 7.12502
lthumb 34.7519 42.2156
rfemur 5.0923 3.79979 23.5175
rtibia -2.78299e-015
rfoot -2.27702 -9.27632
rtoes 15.5794
lfemur -27.2652 -10.3495 11.9877
ltibia 126.583
lfoot 12.5395 -37.5735
ltoes -6.20501
389
root -7.60796 18.4141 -2.13604 199.969 -81.5457 -201.477
lowerback 15.248 6.0901 3.19006
upperback 0.406561 8.39921 -2.13722
thorax -7.26788 3.91546 -5.79944
lowerneck 4.86853 18.9601 13.2819
upperneck -11.6465 24.9873 -20.9746
head 0.202399 12.875 -7.68419
rclavicle -1.15419e-014 -5.36719e-015
rhumerus -26.9595 10.9459 -72.3476
rradius 71.0947
rwrist -13.6762
rhand -7.17137 -24.1097
rfingers 7.12502
rthumb 18.706 -53.2303
lclavicle -1.15419e-014 -5.36719e-015
lhumerus -48.0151 -12.0671 74.1421
lradius 73.9397
lwrist 0.167191
lhand 10.2459 16.0624
lfingers 7.12502
lthumb 35.3596 42.5338
rfemur 4.9537 4.63397 23.1359
rtibia 4.77083e-015
rfoot -2.16135 -9.39514
rtoes 15.345
lfemur -26.5691 -10.193 12.3148
ltibia 126.651
lfoot 15.7322 -38.4385
ltoes -5.11763
390
root -7.62219 18.4334 -2.13027 200.605 -80.7562 -202.044
lowerback 15.2095 6.31318 2.96541
upperback 0.301471 8.62675 -2.48924
thorax -7.31174 4.02494 -6.09647
lowerneck 4.70288 19.3781 13.6307
upperneck -10.5113 25.7153 -21.0106
head 0.721386 13.2034 -7.54031
rclavicle -7.06928e-015 1.42131e-014
rhumerus -26.7912 12.4088 -73.247
rradius 70.6695
rwrist -11.4101
rhand -6.44102 -22.9651
rfingers 7.12502
rthumb 19.4084 -52.0165
lclavicle -7.06928e-015 1.42131e-014
lhumerus -47.8432 -12.6879 73.8044
lradius 73.8975
lwrist 0.496165
lhand 10.9556 16.5406
lfingers 7.12502
lthumb 36.0321 42.8492
rfemur 4.85728 5.3952 22.7623
rtibia -4.77083e-015
rfoot -2.06655 -9.50709
rtoes 15.1302
lfemur -25.8708 -10.0706 12.5645
ltibia 126.549
lfoot 18.1524 -39.0327
ltoes -3.8059
391
root -7.63659 18.4516 -2.1259 201.229 -80.0158 -202.618
lowerback 15.1915 6.53181 2.75171
upperback 0.199064 8.84832 -2.84779
thorax -7.36087 4.13023 -6.40866
lowerneck 4.58239 19.7919 13.9545
upperneck -9.4509 26.4306 -21.0298
head 1.20623 13.527 -7.39585
rclavicle 2.71093e-014 -1.59028e-015
rhumerus -26.6922 13.8362 -74.1406
rradius 70.2875
rwrist -9.13079
rhand -5.83467 -21.8556
rfingers 7.12502
rthumb 19.9913 -50.8473
lclavicle 2.71093e-014 -1.59028e-015
lhumerus -47.6444 -13.3412 73.4483
lradius 73.8991
lwrist 0.810078
lhand 11.7425 17.0337
lfingers 7.12502
lthumb 36.7771 43.1554
rfemur 4.78351 6.10278 22.3899
rtibia -9.54166e-015
rfoot -1.98777 -9.60629
rtoes 14.9365
lfemur -25.1782 -9.94863 12.7366
ltibia 126.283
lfoot 19.6555 -39.439
ltoes -2.21239
